<mxfile host="Electron" modified="2024-01-02T10:44:47.762Z" agent="Mozilla/5.0 (Windows NT 10.0; Win64; x64) AppleWebKit/537.36 (KHTML, like Gecko) draw.io/22.1.16 Chrome/120.0.6099.109 Electron/28.1.0 Safari/537.36" etag="I6oaMECFLf5p72nMxSi3" version="22.1.16" type="device">
  <diagram name="Page-1" id="3FU2BRUodX3esNhyQgwJ">
    <mxGraphModel dx="465" dy="320" grid="1" gridSize="10" guides="1" tooltips="1" connect="1" arrows="1" fold="1" page="1" pageScale="1" pageWidth="850" pageHeight="1100" math="0" shadow="0">
      <root>
        <mxCell id="0" />
        <mxCell id="1" parent="0" />
        <mxCell id="FEGtML5SbePRzF_W_EjW-7" value="内存 Memory" style="swimlane;whiteSpace=wrap;html=1;startSize=30;fillColor=#ffe6cc;strokeColor=#d79b00;" parent="1" vertex="1">
          <mxGeometry x="330" y="170" width="160" height="312" as="geometry" />
        </mxCell>
        <mxCell id="FEGtML5SbePRzF_W_EjW-21" value="... ..." style="rounded=0;whiteSpace=wrap;html=1;fillColor=#b1ddf0;strokeColor=#10739e;fontFamily=consolas;" parent="FEGtML5SbePRzF_W_EjW-7" vertex="1">
          <mxGeometry x="1" y="291" width="158" height="20" as="geometry" />
        </mxCell>
        <mxCell id="FEGtML5SbePRzF_W_EjW-20" value="" style="rounded=0;whiteSpace=wrap;html=1;fillColor=#b1ddf0;strokeColor=#10739e;fontFamily=consolas;" parent="FEGtML5SbePRzF_W_EjW-7" vertex="1">
          <mxGeometry x="1" y="283" width="158" height="8" as="geometry" />
        </mxCell>
        <mxCell id="ru0bb8mRiP1bRBSoLJWm-8" value="" style="rounded=0;whiteSpace=wrap;html=1;fillColor=#b1ddf0;strokeColor=#10739e;fontFamily=consolas;" parent="FEGtML5SbePRzF_W_EjW-7" vertex="1">
          <mxGeometry x="1" y="275" width="158" height="8" as="geometry" />
        </mxCell>
        <mxCell id="ru0bb8mRiP1bRBSoLJWm-9" value="" style="rounded=0;whiteSpace=wrap;html=1;fillColor=#b1ddf0;strokeColor=#10739e;fontFamily=consolas;" parent="FEGtML5SbePRzF_W_EjW-7" vertex="1">
          <mxGeometry x="1" y="267" width="158" height="8" as="geometry" />
        </mxCell>
        <mxCell id="ru0bb8mRiP1bRBSoLJWm-10" value="" style="rounded=0;whiteSpace=wrap;html=1;fillColor=#b1ddf0;strokeColor=#10739e;fontFamily=consolas;" parent="FEGtML5SbePRzF_W_EjW-7" vertex="1">
          <mxGeometry x="1" y="259" width="158" height="8" as="geometry" />
        </mxCell>
        <mxCell id="ru0bb8mRiP1bRBSoLJWm-11" value="" style="rounded=0;whiteSpace=wrap;html=1;fillColor=#b1ddf0;strokeColor=#10739e;fontFamily=consolas;" parent="FEGtML5SbePRzF_W_EjW-7" vertex="1">
          <mxGeometry x="1" y="251" width="158" height="8" as="geometry" />
        </mxCell>
        <mxCell id="ru0bb8mRiP1bRBSoLJWm-12" value="" style="rounded=0;whiteSpace=wrap;html=1;fillColor=#b1ddf0;strokeColor=#10739e;fontFamily=consolas;" parent="FEGtML5SbePRzF_W_EjW-7" vertex="1">
          <mxGeometry x="1" y="243" width="158" height="8" as="geometry" />
        </mxCell>
        <mxCell id="ru0bb8mRiP1bRBSoLJWm-13" value="" style="rounded=0;whiteSpace=wrap;html=1;fillColor=#b1ddf0;strokeColor=#10739e;fontFamily=consolas;" parent="FEGtML5SbePRzF_W_EjW-7" vertex="1">
          <mxGeometry x="1" y="235" width="158" height="8" as="geometry" />
        </mxCell>
        <mxCell id="ru0bb8mRiP1bRBSoLJWm-14" value="" style="rounded=0;whiteSpace=wrap;html=1;fillColor=#b1ddf0;strokeColor=#10739e;fontFamily=consolas;" parent="FEGtML5SbePRzF_W_EjW-7" vertex="1">
          <mxGeometry x="1" y="227" width="158" height="8" as="geometry" />
        </mxCell>
        <mxCell id="ru0bb8mRiP1bRBSoLJWm-15" value="" style="rounded=0;whiteSpace=wrap;html=1;fillColor=#b1ddf0;strokeColor=#10739e;fontFamily=consolas;" parent="FEGtML5SbePRzF_W_EjW-7" vertex="1">
          <mxGeometry x="1" y="219" width="158" height="8" as="geometry" />
        </mxCell>
        <mxCell id="ru0bb8mRiP1bRBSoLJWm-16" value="" style="rounded=0;whiteSpace=wrap;html=1;fillColor=#b1ddf0;strokeColor=#10739e;fontFamily=consolas;" parent="FEGtML5SbePRzF_W_EjW-7" vertex="1">
          <mxGeometry x="1" y="211" width="158" height="8" as="geometry" />
        </mxCell>
        <mxCell id="ru0bb8mRiP1bRBSoLJWm-17" value="" style="rounded=0;whiteSpace=wrap;html=1;fillColor=#b1ddf0;strokeColor=#10739e;fontFamily=consolas;" parent="FEGtML5SbePRzF_W_EjW-7" vertex="1">
          <mxGeometry x="1" y="203" width="158" height="8" as="geometry" />
        </mxCell>
        <mxCell id="ru0bb8mRiP1bRBSoLJWm-18" value="" style="rounded=0;whiteSpace=wrap;html=1;fillColor=#b1ddf0;strokeColor=#10739e;fontFamily=consolas;" parent="FEGtML5SbePRzF_W_EjW-7" vertex="1">
          <mxGeometry x="1" y="195" width="158" height="8" as="geometry" />
        </mxCell>
        <mxCell id="ru0bb8mRiP1bRBSoLJWm-19" value="" style="rounded=0;whiteSpace=wrap;html=1;fillColor=#b1ddf0;strokeColor=#10739e;fontFamily=consolas;" parent="FEGtML5SbePRzF_W_EjW-7" vertex="1">
          <mxGeometry x="1" y="187" width="158" height="8" as="geometry" />
        </mxCell>
        <mxCell id="ru0bb8mRiP1bRBSoLJWm-20" value="" style="rounded=0;whiteSpace=wrap;html=1;fillColor=#b1ddf0;strokeColor=#10739e;fontFamily=consolas;" parent="FEGtML5SbePRzF_W_EjW-7" vertex="1">
          <mxGeometry x="1" y="179" width="158" height="8" as="geometry" />
        </mxCell>
        <mxCell id="ru0bb8mRiP1bRBSoLJWm-21" value="" style="rounded=0;whiteSpace=wrap;html=1;fillColor=#b1ddf0;strokeColor=#10739e;fontFamily=consolas;" parent="FEGtML5SbePRzF_W_EjW-7" vertex="1">
          <mxGeometry x="1" y="171" width="158" height="8" as="geometry" />
        </mxCell>
        <mxCell id="ru0bb8mRiP1bRBSoLJWm-22" value="" style="rounded=0;whiteSpace=wrap;html=1;fillColor=#b1ddf0;strokeColor=#10739e;fontFamily=consolas;" parent="FEGtML5SbePRzF_W_EjW-7" vertex="1">
          <mxGeometry x="1" y="163" width="158" height="8" as="geometry" />
        </mxCell>
        <mxCell id="ru0bb8mRiP1bRBSoLJWm-23" value="" style="rounded=0;whiteSpace=wrap;html=1;fillColor=#b1ddf0;strokeColor=#10739e;fontFamily=consolas;" parent="FEGtML5SbePRzF_W_EjW-7" vertex="1">
          <mxGeometry x="1" y="155" width="158" height="8" as="geometry" />
        </mxCell>
        <mxCell id="ru0bb8mRiP1bRBSoLJWm-24" value="" style="rounded=0;whiteSpace=wrap;html=1;fillColor=#b1ddf0;strokeColor=#10739e;fontFamily=consolas;" parent="FEGtML5SbePRzF_W_EjW-7" vertex="1">
          <mxGeometry x="1" y="147" width="158" height="8" as="geometry" />
        </mxCell>
        <mxCell id="ru0bb8mRiP1bRBSoLJWm-25" value="" style="rounded=0;whiteSpace=wrap;html=1;fillColor=#b1ddf0;strokeColor=#10739e;fontFamily=consolas;" parent="FEGtML5SbePRzF_W_EjW-7" vertex="1">
          <mxGeometry x="1" y="139" width="158" height="8" as="geometry" />
        </mxCell>
        <mxCell id="ru0bb8mRiP1bRBSoLJWm-26" value="" style="rounded=0;whiteSpace=wrap;html=1;fillColor=#b1ddf0;strokeColor=#10739e;fontFamily=consolas;" parent="FEGtML5SbePRzF_W_EjW-7" vertex="1">
          <mxGeometry x="1" y="131" width="158" height="8" as="geometry" />
        </mxCell>
        <mxCell id="ru0bb8mRiP1bRBSoLJWm-27" value="" style="rounded=0;whiteSpace=wrap;html=1;fillColor=#b1ddf0;strokeColor=#10739e;fontFamily=consolas;" parent="FEGtML5SbePRzF_W_EjW-7" vertex="1">
          <mxGeometry x="1" y="123" width="158" height="8" as="geometry" />
        </mxCell>
        <mxCell id="ru0bb8mRiP1bRBSoLJWm-28" value="" style="rounded=0;whiteSpace=wrap;html=1;fillColor=#b1ddf0;strokeColor=#10739e;fontFamily=consolas;" parent="FEGtML5SbePRzF_W_EjW-7" vertex="1">
          <mxGeometry x="1" y="115" width="158" height="8" as="geometry" />
        </mxCell>
        <mxCell id="ru0bb8mRiP1bRBSoLJWm-29" value="" style="rounded=0;whiteSpace=wrap;html=1;fillColor=#b1ddf0;strokeColor=#10739e;fontFamily=consolas;" parent="FEGtML5SbePRzF_W_EjW-7" vertex="1">
          <mxGeometry x="1" y="107" width="158" height="8" as="geometry" />
        </mxCell>
        <mxCell id="ru0bb8mRiP1bRBSoLJWm-30" value="" style="rounded=0;whiteSpace=wrap;html=1;fillColor=#b1ddf0;strokeColor=#10739e;fontFamily=consolas;" parent="FEGtML5SbePRzF_W_EjW-7" vertex="1">
          <mxGeometry x="1" y="99" width="158" height="8" as="geometry" />
        </mxCell>
        <mxCell id="ru0bb8mRiP1bRBSoLJWm-31" value="" style="rounded=0;whiteSpace=wrap;html=1;fillColor=#b1ddf0;strokeColor=#10739e;fontFamily=consolas;" parent="FEGtML5SbePRzF_W_EjW-7" vertex="1">
          <mxGeometry x="1" y="91" width="158" height="8" as="geometry" />
        </mxCell>
        <mxCell id="ru0bb8mRiP1bRBSoLJWm-32" value="" style="rounded=0;whiteSpace=wrap;html=1;fillColor=#b1ddf0;strokeColor=#10739e;fontFamily=consolas;" parent="FEGtML5SbePRzF_W_EjW-7" vertex="1">
          <mxGeometry x="1" y="83" width="158" height="8" as="geometry" />
        </mxCell>
        <mxCell id="ru0bb8mRiP1bRBSoLJWm-33" value="" style="rounded=0;whiteSpace=wrap;html=1;fillColor=#b1ddf0;strokeColor=#10739e;fontFamily=consolas;" parent="FEGtML5SbePRzF_W_EjW-7" vertex="1">
          <mxGeometry x="1" y="75" width="158" height="8" as="geometry" />
        </mxCell>
        <mxCell id="ru0bb8mRiP1bRBSoLJWm-34" value="" style="rounded=0;whiteSpace=wrap;html=1;fillColor=#b1ddf0;strokeColor=#10739e;fontFamily=consolas;" parent="FEGtML5SbePRzF_W_EjW-7" vertex="1">
          <mxGeometry x="1" y="67" width="158" height="8" as="geometry" />
        </mxCell>
        <mxCell id="ru0bb8mRiP1bRBSoLJWm-35" value="" style="rounded=0;whiteSpace=wrap;html=1;fillColor=#b1ddf0;strokeColor=#10739e;fontFamily=consolas;" parent="FEGtML5SbePRzF_W_EjW-7" vertex="1">
          <mxGeometry x="1" y="59" width="158" height="8" as="geometry" />
        </mxCell>
        <mxCell id="ru0bb8mRiP1bRBSoLJWm-36" value="" style="rounded=0;whiteSpace=wrap;html=1;fillColor=#b1ddf0;strokeColor=#10739e;fontFamily=consolas;" parent="FEGtML5SbePRzF_W_EjW-7" vertex="1">
          <mxGeometry x="1" y="51" width="158" height="8" as="geometry" />
        </mxCell>
        <mxCell id="FEGtML5SbePRzF_W_EjW-19" value="... ..." style="rounded=0;whiteSpace=wrap;html=1;fillColor=#b1ddf0;strokeColor=#10739e;fontFamily=consolas;" parent="FEGtML5SbePRzF_W_EjW-7" vertex="1">
          <mxGeometry x="1" y="31" width="158" height="20" as="geometry" />
        </mxCell>
        <mxCell id="FEGtML5SbePRzF_W_EjW-22" value="" style="shape=curlyBracket;whiteSpace=wrap;html=1;rounded=1;labelPosition=left;verticalLabelPosition=middle;align=right;verticalAlign=middle;" parent="1" vertex="1">
          <mxGeometry x="310" y="421" width="20" height="32" as="geometry" />
        </mxCell>
        <mxCell id="FEGtML5SbePRzF_W_EjW-25" value="&lt;font face=&quot;consolas&quot;&gt;array[0]&lt;/font&gt;" style="text;html=1;strokeColor=none;fillColor=none;align=center;verticalAlign=middle;whiteSpace=wrap;rounded=0;" parent="1" vertex="1">
          <mxGeometry x="250" y="422" width="60" height="30" as="geometry" />
        </mxCell>
        <mxCell id="HnIwas3BhCwQeaQG_xb3-3" style="edgeStyle=orthogonalEdgeStyle;rounded=0;orthogonalLoop=1;jettySize=auto;html=1;" parent="1" source="HnIwas3BhCwQeaQG_xb3-2" target="ru0bb8mRiP1bRBSoLJWm-8" edge="1">
          <mxGeometry relative="1" as="geometry" />
        </mxCell>
        <mxCell id="HnIwas3BhCwQeaQG_xb3-2" value="&lt;font face=&quot;consolas&quot;&gt;array&lt;/font&gt;" style="text;html=1;strokeColor=none;fillColor=none;align=left;verticalAlign=middle;whiteSpace=wrap;rounded=0;" parent="1" vertex="1">
          <mxGeometry x="520" y="434" width="50" height="30" as="geometry" />
        </mxCell>
        <mxCell id="ru0bb8mRiP1bRBSoLJWm-39" value="&lt;font face=&quot;consolas&quot;&gt;array[1]&lt;/font&gt;" style="text;html=1;strokeColor=none;fillColor=none;align=center;verticalAlign=middle;whiteSpace=wrap;rounded=0;" parent="1" vertex="1">
          <mxGeometry x="250" y="390" width="60" height="30" as="geometry" />
        </mxCell>
        <mxCell id="ru0bb8mRiP1bRBSoLJWm-42" value="&lt;font face=&quot;consolas&quot;&gt;array[2]&lt;/font&gt;" style="text;html=1;strokeColor=none;fillColor=none;align=center;verticalAlign=middle;whiteSpace=wrap;rounded=0;" parent="1" vertex="1">
          <mxGeometry x="250" y="358" width="60" height="30" as="geometry" />
        </mxCell>
        <mxCell id="ru0bb8mRiP1bRBSoLJWm-43" value="&lt;font face=&quot;consolas&quot;&gt;array[3]&lt;/font&gt;" style="text;html=1;strokeColor=none;fillColor=none;align=center;verticalAlign=middle;whiteSpace=wrap;rounded=0;" parent="1" vertex="1">
          <mxGeometry x="250" y="326" width="60" height="30" as="geometry" />
        </mxCell>
        <mxCell id="ru0bb8mRiP1bRBSoLJWm-45" value="" style="shape=curlyBracket;whiteSpace=wrap;html=1;rounded=1;labelPosition=left;verticalLabelPosition=middle;align=right;verticalAlign=middle;" parent="1" vertex="1">
          <mxGeometry x="310" y="389" width="20" height="32" as="geometry" />
        </mxCell>
        <mxCell id="ru0bb8mRiP1bRBSoLJWm-46" value="" style="shape=curlyBracket;whiteSpace=wrap;html=1;rounded=1;labelPosition=left;verticalLabelPosition=middle;align=right;verticalAlign=middle;" parent="1" vertex="1">
          <mxGeometry x="310" y="357" width="20" height="32" as="geometry" />
        </mxCell>
        <mxCell id="ru0bb8mRiP1bRBSoLJWm-47" value="" style="shape=curlyBracket;whiteSpace=wrap;html=1;rounded=1;labelPosition=left;verticalLabelPosition=middle;align=right;verticalAlign=middle;" parent="1" vertex="1">
          <mxGeometry x="310" y="325" width="20" height="32" as="geometry" />
        </mxCell>
        <mxCell id="ru0bb8mRiP1bRBSoLJWm-48" value="" style="shape=curlyBracket;whiteSpace=wrap;html=1;rounded=1;labelPosition=left;verticalLabelPosition=middle;align=right;verticalAlign=middle;" parent="1" vertex="1">
          <mxGeometry x="310" y="293" width="20" height="32" as="geometry" />
        </mxCell>
        <mxCell id="ru0bb8mRiP1bRBSoLJWm-49" value="&lt;font face=&quot;consolas&quot;&gt;array[4]&lt;/font&gt;" style="text;html=1;strokeColor=none;fillColor=none;align=center;verticalAlign=middle;whiteSpace=wrap;rounded=0;" parent="1" vertex="1">
          <mxGeometry x="250" y="294" width="60" height="30" as="geometry" />
        </mxCell>
        <mxCell id="ru0bb8mRiP1bRBSoLJWm-50" value="&lt;font face=&quot;consolas&quot;&gt;array[5]&lt;/font&gt;" style="text;html=1;strokeColor=none;fillColor=none;align=center;verticalAlign=middle;whiteSpace=wrap;rounded=0;" parent="1" vertex="1">
          <mxGeometry x="250" y="262" width="60" height="30" as="geometry" />
        </mxCell>
        <mxCell id="ru0bb8mRiP1bRBSoLJWm-53" value="" style="shape=curlyBracket;whiteSpace=wrap;html=1;rounded=1;labelPosition=left;verticalLabelPosition=middle;align=right;verticalAlign=middle;" parent="1" vertex="1">
          <mxGeometry x="310" y="261" width="20" height="32" as="geometry" />
        </mxCell>
        <mxCell id="ru0bb8mRiP1bRBSoLJWm-57" value="&lt;font face=&quot;consolas&quot;&gt;array+1&lt;/font&gt;" style="text;html=1;strokeColor=none;fillColor=none;align=left;verticalAlign=middle;whiteSpace=wrap;rounded=0;" parent="1" vertex="1">
          <mxGeometry x="520" y="402" width="50" height="30" as="geometry" />
        </mxCell>
        <mxCell id="ru0bb8mRiP1bRBSoLJWm-58" style="edgeStyle=orthogonalEdgeStyle;rounded=0;orthogonalLoop=1;jettySize=auto;html=1;" parent="1" source="ru0bb8mRiP1bRBSoLJWm-57" target="ru0bb8mRiP1bRBSoLJWm-12" edge="1">
          <mxGeometry relative="1" as="geometry">
            <mxPoint x="489" y="417" as="targetPoint" />
          </mxGeometry>
        </mxCell>
        <mxCell id="ru0bb8mRiP1bRBSoLJWm-59" style="edgeStyle=orthogonalEdgeStyle;rounded=0;orthogonalLoop=1;jettySize=auto;html=1;" parent="1" source="ru0bb8mRiP1bRBSoLJWm-60" target="ru0bb8mRiP1bRBSoLJWm-16" edge="1">
          <mxGeometry relative="1" as="geometry">
            <mxPoint x="489" y="385" as="targetPoint" />
          </mxGeometry>
        </mxCell>
        <mxCell id="ru0bb8mRiP1bRBSoLJWm-60" value="&lt;font face=&quot;consolas&quot;&gt;array+2&lt;br&gt;&lt;/font&gt;" style="text;html=1;strokeColor=none;fillColor=none;align=left;verticalAlign=middle;whiteSpace=wrap;rounded=0;" parent="1" vertex="1">
          <mxGeometry x="520" y="370" width="50" height="30" as="geometry" />
        </mxCell>
        <mxCell id="ru0bb8mRiP1bRBSoLJWm-61" value="&lt;font face=&quot;consolas&quot;&gt;array+3&lt;/font&gt;" style="text;html=1;strokeColor=none;fillColor=none;align=left;verticalAlign=middle;whiteSpace=wrap;rounded=0;" parent="1" vertex="1">
          <mxGeometry x="520" y="338" width="50" height="30" as="geometry" />
        </mxCell>
        <mxCell id="ru0bb8mRiP1bRBSoLJWm-62" style="edgeStyle=orthogonalEdgeStyle;rounded=0;orthogonalLoop=1;jettySize=auto;html=1;" parent="1" source="ru0bb8mRiP1bRBSoLJWm-61" target="ru0bb8mRiP1bRBSoLJWm-20" edge="1">
          <mxGeometry relative="1" as="geometry">
            <mxPoint x="489" y="353" as="targetPoint" />
          </mxGeometry>
        </mxCell>
        <mxCell id="ru0bb8mRiP1bRBSoLJWm-63" style="edgeStyle=orthogonalEdgeStyle;rounded=0;orthogonalLoop=1;jettySize=auto;html=1;" parent="1" source="ru0bb8mRiP1bRBSoLJWm-64" target="ru0bb8mRiP1bRBSoLJWm-24" edge="1">
          <mxGeometry relative="1" as="geometry">
            <mxPoint x="489" y="321" as="targetPoint" />
          </mxGeometry>
        </mxCell>
        <mxCell id="ru0bb8mRiP1bRBSoLJWm-64" value="&lt;font face=&quot;consolas&quot;&gt;array+4&lt;/font&gt;" style="text;html=1;strokeColor=none;fillColor=none;align=left;verticalAlign=middle;whiteSpace=wrap;rounded=0;" parent="1" vertex="1">
          <mxGeometry x="520" y="306" width="50" height="30" as="geometry" />
        </mxCell>
        <mxCell id="ru0bb8mRiP1bRBSoLJWm-65" value="&lt;font face=&quot;consolas&quot;&gt;array+5&lt;/font&gt;" style="text;html=1;strokeColor=none;fillColor=none;align=left;verticalAlign=middle;whiteSpace=wrap;rounded=0;" parent="1" vertex="1">
          <mxGeometry x="520" y="274" width="50" height="30" as="geometry" />
        </mxCell>
        <mxCell id="ru0bb8mRiP1bRBSoLJWm-66" style="edgeStyle=orthogonalEdgeStyle;rounded=0;orthogonalLoop=1;jettySize=auto;html=1;" parent="1" source="ru0bb8mRiP1bRBSoLJWm-65" target="ru0bb8mRiP1bRBSoLJWm-28" edge="1">
          <mxGeometry relative="1" as="geometry">
            <mxPoint x="489" y="289" as="targetPoint" />
          </mxGeometry>
        </mxCell>
      </root>
    </mxGraphModel>
  </diagram>
</mxfile>
